<svg width="150" height="50" viewBox="0 0 150 50" fill="none" xmlns="http://www.w3.org/2000/svg">
<g clip-path="url(#clip0)">
<path d="M138.069 36.3991C138.047 36.3774 138.047 36.334 138.069 36.3991V36.3991Z" fill="#1D3D3F"/>
<path d="M17.7441 31.0628L17.8092 31.1496C17.7875 31.0845 17.7658 31.0411 17.7441 31.0628Z" fill="#1D3D3F"/>
<path d="M33.3619 16.0301C34.2946 16.0084 35.7914 14.5334 34.3597 14.0561C33.6005 13.6657 32.1905 13.8392 31.6916 14.3815C31.3662 14.8587 31.5614 15.3577 31.9085 15.7915C31.9085 15.7915 32.0387 16.0518 33.3619 16.0301Z" fill="#1D3D3F"/>
<path d="M149.805 12.4076C147.679 11.2362 144.924 10.8675 141.236 11.0627C141.193 11.0627 141.128 11.0844 141.085 11.0844C138.33 11.2362 135.054 11.7134 131.128 12.4293C131.02 12.451 130.911 12.451 130.824 12.4727C131.388 11.1928 132.712 7.93904 133.861 5.20585C134.599 3.51387 132.972 3.83925 132.299 4.96724C130.629 7.93904 130.347 9.1104 128.677 12.7763C127.961 12.8848 126.529 13.0583 125.965 13.2753C125.683 13.3837 125.271 13.4488 125.206 14.0996C125.184 14.5985 125.184 14.772 125.423 15.0106C125.575 15.1625 125.813 15.2492 125.987 15.2275C126.616 15.1625 127.267 15.0757 127.896 14.9672C127.614 15.6614 127.158 16.6592 126.659 17.8306C125.987 19.2622 124.729 21.605 123.883 22.8197C123.08 23.9694 121.497 25.7048 119.675 26.7894C117.918 27.657 117.05 26.4206 117.072 25.0757C117.18 23.1451 117.983 21.9304 118.699 20.6939C118.981 20.195 119.393 19.1755 118.655 18.8067C117.918 18.4163 117.158 19.2839 116.833 19.7178C116.095 20.6939 115.228 21.8219 114.23 22.8848C114.187 22.9282 114.122 22.9933 114.078 23.0367C112.69 24.4032 107.527 28.1777 107.028 26.8111C106.876 25.8566 107.354 25.2059 107.462 24.9239C107.679 24.3816 107.918 23.8826 108.2 23.362C108.807 22.2991 109.501 21.2796 110.195 20.2818C110.477 19.8696 110.716 18.156 109.696 18.5464C108.699 18.9369 107.939 19.2406 106.898 19.4141C106.334 19.5009 105.748 19.5659 105.184 19.5876C105.163 19.5876 104.902 19.5876 104.881 19.5876C104.902 19.5442 104.902 19.5009 104.924 19.4575C105.119 18.9152 105.358 17.8957 104.512 18.0692C103.536 18.2861 102.668 18.9586 102.234 19.8696C101.952 20.477 101.866 21.2145 102.256 21.6918C101.388 23.2319 100.239 24.6419 98.8937 25.7698C98.3731 26.182 97.4187 26.7243 96.7245 26.7243C95.705 26.7243 95.8352 25.9868 96.1172 25.2492C96.2039 25.0106 96.3124 24.772 96.4209 24.5117C97.0716 23.1451 97.679 22.3208 98.5467 20.7373C99.0239 19.6744 97.7875 17.9173 96.8113 19.6527C96.3124 20.4336 95.2061 22.169 94.2083 23.4922C92.6681 25.5312 90.7809 27.5052 89.5662 26.2905C88.3298 24.6636 90.3471 22.3642 91.7788 20.0865C92.2126 19.0453 90.8243 17.3967 89.6313 19.2406C89.3493 19.631 89.1107 19.9781 88.8937 20.3035C87.9176 21.4098 86.551 22.798 85.3363 23.9043V23.926C85.076 24.1429 84.794 24.3816 84.5337 24.5768C82.7115 25.9868 81.2148 26.7894 81.2148 26.0518C81.1931 25.6397 81.3232 25.0323 81.5619 24.2948C81.7354 23.7959 81.9089 23.2753 82.0825 22.7764C82.4729 21.7351 82.9718 20.5421 83.4707 19.3056C83.5792 19.0453 83.6877 18.785 83.8178 18.5247C84.5987 16.7243 85.2929 15.2275 85.5749 14.772C86.6595 14.6419 97.6139 13.0583 103.449 12.451C107.918 11.9737 109.653 12.0171 112.668 12.3642C114.122 12.5377 114.816 12.9499 115.792 12.6028C115.922 12.5594 116.291 12.4076 115.9 12.1907C110.174 8.5898 93.1888 11.6701 86.4859 12.5377C87.1367 10.9976 88.5033 8.00411 89.653 5.27092C90.3905 3.57895 88.7419 3.90433 88.0911 5.03231C86.4209 8.00411 86.0087 9.17548 84.3384 12.8414C83.6226 12.9499 82.1909 13.1234 81.6269 13.3403C81.3449 13.4488 80.9328 13.5139 80.8677 14.1646C80.846 14.6636 80.846 14.8371 81.0846 15.0757C81.2365 15.2275 81.4751 15.3143 81.6486 15.2926C82.2777 15.2275 82.82 15.1408 83.4707 15.054C82.82 16.3989 81.8872 18.1343 80.8894 20.4119C80.3905 21.323 79.8482 22.2124 79.436 22.8197C78.6334 23.9694 77.0499 25.7048 75.2278 26.7894C73.9697 27.4184 73.6877 26.464 73.666 25.8132C73.666 25.4879 73.7528 25.1625 73.8829 24.8371C73.9697 24.5985 74.6638 23.0367 74.7506 22.7764C75.1844 21.6918 74.3384 21.7134 73.7094 21.9304C73.4707 22.0171 73.2321 22.3425 73.1888 22.0171C73.1671 21.9087 73.1888 21.6484 73.1454 21.3664C73.0803 20.5421 72.7332 19.9998 72.4295 19.5659C69.9783 16.0735 63.4924 22.0388 64.4252 25.8566C62.0825 27.0714 60.6508 27.6787 60.7159 24.3382C60.6074 19.6093 58.1779 22.0171 55.9219 24.4033C55.4447 24.9022 54.4252 26.1386 54.0131 26.5724C54.3167 26.1386 55.1627 24.8154 55.4447 24.2297C56.7896 21.3013 57.5922 17.1581 54.5337 18.9152C51.5835 20.759 45.2929 25.6614 45.2929 25.6614C45.3363 25.5529 46.3124 23.4488 46.3992 23.1885C46.8764 21.887 46.269 21.7134 45.6399 22.0605C45.4013 22.1473 44.8373 22.798 44.8157 22.4293C44.794 22.3208 44.8157 22.0605 44.7723 21.7785C44.7506 21.5833 44.7289 21.4314 44.6855 21.2579C44.6855 21.2579 44.6855 21.2579 44.6855 21.2362C43.7527 16.746 39.9133 18.221 37.6573 20.9759C37.3102 21.3664 37.0282 21.7568 36.8113 22.1473C35.8786 23.861 33.948 26.0518 32.3211 26.7894L32.2994 26.8111C30.564 27.657 29.6963 26.4423 29.718 25.0974C29.8265 23.1668 30.6291 21.9521 31.3449 20.7156C31.6269 20.2167 32.0391 19.1972 31.3016 18.8284C30.564 18.438 29.8048 19.3056 29.4794 19.7395C28.7419 20.7156 27.8742 21.8436 26.8764 22.9065C26.833 22.9499 26.7679 23.015 26.7245 23.0583C25.8786 23.9043 23.6226 25.618 21.8872 26.5291C20.8026 27.2666 21.6269 28.6332 22.3862 28.4163C24.3167 27.5052 26.4859 26.0085 27.4404 25.0974C27.5055 25.054 27.5922 25.0974 27.5705 25.1625C27.5272 25.5312 27.4621 26.2037 27.4838 26.5074C27.5705 28.5464 29.3493 29.6744 31.6052 29.2623C33.0586 29.0019 35.141 27.3534 36.2473 26.2471C36.3992 26.8761 36.5944 27.3534 36.7245 27.5703C38.1996 29.9564 39.9567 29.1321 42.1909 27.6787C42.2777 27.6137 42.4078 27.7004 42.256 27.8306C40.6725 29.2839 31.9306 36.7677 29.8916 42.2774C28.8504 44.9889 28.525 46.7677 29.6096 48.503C30.2603 49.5876 32.6248 50.5421 34.4252 48.8501C36.2039 47.1147 41.3883 35.5312 43.7094 29.3273C43.8612 29.1972 53.948 20.9976 54.4686 21.0193C55.0543 20.9759 52.0174 25.9651 51.4751 27.0063C50.8026 28.221 51.4317 29.8262 52.6681 30.2384C52.9068 30.3252 53.1888 30.3685 53.4274 30.2601C53.6443 30.1733 56.3775 27.31 57.3102 26.0952C59.0456 23.8393 58.2647 26.6158 59.1107 27.7655C60.5857 29.8046 63.102 28.8718 65.0326 27.5486C66.8113 30.7807 69.8916 28.0258 71.4751 26.5291C71.5402 26.746 71.5835 26.9629 71.6486 27.1581C71.8872 28.1777 72.82 29.5659 74.5337 29.2623C76.3124 28.9369 77.8525 27.5703 79.0022 26.2688C78.0911 31.9521 82.9935 28.1993 83.7961 27.6787C83.8178 27.657 84.4252 27.2666 85.4664 26.3121C86.0087 25.9 86.551 25.4445 86.9198 25.054C86.8547 25.9651 86.9632 26.9846 87.4404 27.8089C89.0456 30.1516 91.1931 29.067 93.7527 26.9846C93.7094 27.592 93.7961 28.1777 94.23 28.6549C94.8807 29.3707 96.0087 29.3924 96.8764 29.1538C98.8504 28.6115 100.651 26.8111 101.887 25.2709C102.646 24.3382 103.319 23.362 103.883 22.3208C104.49 22.3208 105.119 22.2124 105.618 22.1473C106.226 22.0822 106.811 21.9737 107.375 21.8219C106.941 22.5377 106.291 23.2753 105.944 24.0562C105.423 25.2059 104.751 26.7677 105.163 28.0475C105.271 28.3946 105.445 28.6549 105.683 28.8067C105.987 29.0453 106.638 29.2839 107.202 29.2189C109.263 29.1321 113.471 26.4206 114.859 25.054C114.902 25.0106 114.967 25.054 114.967 25.0974C114.924 25.4445 114.859 26.182 114.881 26.5074C114.967 28.5464 116.746 29.6744 119.002 29.2623C120.781 28.9369 122.321 27.5703 123.471 26.2688C122.56 31.9521 127.831 28.3295 128.633 27.7004C134.989 22.1473 134.035 20.3252 133.059 20.8024C132.712 20.8892 130.043 23.861 129.024 24.6202C127.202 26.0301 125.705 26.8328 125.705 26.0952C125.683 25.6831 125.813 25.0757 126.052 24.3382C126.226 23.8393 126.399 23.3187 126.573 22.8197C126.963 21.7785 127.462 20.5855 127.961 19.3273C128.156 18.8501 128.373 18.3729 128.59 17.8957C129.111 16.7026 129.61 15.5746 129.935 14.7503C133.037 14.1863 138.807 13.1234 142.278 12.9499C143.84 12.8197 145.358 12.7547 146.638 12.8197C148.091 12.9065 148.829 13.2753 149.761 12.8848C149.87 12.7547 150.195 12.6028 149.805 12.4076ZM35.1193 44.3165C31.974 50.1082 29.8048 47.7221 31.7788 42.3859C33.2755 38.9369 35.358 36.7026 41.3883 30.6722C40.6074 32.5594 36.1606 42.4076 35.1193 44.3165ZM42.9284 23.926C41.974 24.9889 39.8916 27.3967 38.7853 26.0301C37.3102 24.2514 40.6074 20.477 41.974 20.4987C43.4924 20.4336 43.8829 22.9499 42.9284 23.926ZM71.1714 23.861C70.2603 24.8371 68.2213 27.2666 67.0933 26.2037C65.8786 24.9022 67.5488 22.2124 69.1974 21.1495C69.5662 20.9108 69.8699 20.7156 70.282 20.6722C70.9111 20.6072 71.1714 20.8892 71.41 21.2579C71.8872 21.9737 71.8005 23.2102 71.1714 23.861Z" fill="#1D3D3F"/>
<path d="M21.301 20.5205C17.57 14.0346 6.46368 15.5964 6.91921 10.7374C7.39643 6.65929 14.75 2.25582 18.8498 1.97382C25.4442 1.62675 21.3878 8.93694 23.7956 8.80679C25.3357 8.74172 25.4008 3.34042 24.186 1.93044C20.2598 -3.68778 4.61986 4.09963 4.44633 10.8892C4.33787 12.3426 5.16216 13.514 6.9409 14.6202C8.5678 15.6831 11.6264 16.6159 11.6264 16.6159C28.4593 22.0172 15.2055 31.8871 5.29231 28.8068C-1.19359 26.8545 5.14047 21.4098 2.79774 20.7591C2.79774 20.7591 1.69145 20.3903 0.628539 23.1452C-3.55801 32.8849 13.7956 34.1647 20.0212 27.592C23.5136 23.7743 21.301 20.5205 21.301 20.5205Z" fill="#1D3D3F"/>
<path d="M120.325 16.0301C121.149 16.0084 122.494 14.5334 121.214 14.0561C120.542 13.6657 119.284 13.8392 118.85 14.3815C118.568 14.8587 118.741 15.3577 119.045 15.7915C119.023 15.7915 119.153 16.0518 120.325 16.0301Z" fill="#1D3D3F"/>
</g>
<defs>
<clipPath id="clip0">
<rect width="150" height="49.6963" fill="white"/>
</clipPath>
</defs>
</svg>
